<?xml version="1.0" standalone="no"?>
<!DOCTYPE svg PUBLIC "-//W3C//DTD SVG 20010904//EN"
 "http://www.w3.org/TR/2001/REC-SVG-20010904/DTD/svg10.dtd">
<svg version="1.0" xmlns="http://www.w3.org/2000/svg"
 width="121.000000pt" height="121.000000pt" viewBox="0 0 121.000000 121.000000"
 preserveAspectRatio="xMidYMid meet">

<g transform="translate(0.000000,121.000000) scale(0.100000,-0.100000)"
fill="#000000" stroke="none">
<path d="M525 1204 c-239 -37 -432 -206 -501 -439 -24 -81 -24 -239 0 -320 61
-206 215 -360 421 -421 81 -24 239 -24 320 0 206 61 360 215 421 421 24 81 24
239 0 320 -61 204 -216 360 -416 419 -56 17 -193 28 -245 20z m241 -134 c200
-69 328 -251 328 -465 0 -215 -126 -393 -330 -466 -83 -30 -235 -30 -318 0
-150 54 -261 168 -312 321 -25 75 -25 215 0 290 89 268 370 410 632 320z"/>
<path d="M412 846 c-34 -18 -62 -66 -62 -106 0 -114 271 -390 383 -390 62 0
127 53 127 104 0 8 -29 37 -65 66 -66 53 -88 57 -115 25 -20 -24 -38 -18 -90
31 -61 57 -68 76 -41 110 12 15 21 31 21 36 0 20 -102 138 -118 138 -10 -1
-27 -6 -40 -14z"/>
</g>
</svg>
