<?xml version="1.0" standalone="no"?>
<!DOCTYPE svg PUBLIC "-//W3C//DTD SVG 20010904//EN"
 "http://www.w3.org/TR/2001/REC-SVG-20010904/DTD/svg10.dtd">
<svg version="1.0" xmlns="http://www.w3.org/2000/svg"
 width="225.000000pt" height="224.000000pt" viewBox="0 0 225.000000 224.000000"
 preserveAspectRatio="xMidYMid meet">

<g transform="translate(0.000000,224.000000) scale(0.100000,-0.100000)"
fill="#000000" stroke="none">
<path d="M71 2222 c-71 -38 -71 -38 -71 -502 0 -465 0 -468 70 -502 32 -16 75
-18 450 -18 464 0 464 0 502 71 17 31 18 65 18 444 0 377 -2 413 -19 451 -34
74 -32 74 -503 74 -381 0 -416 -1 -447 -18z m839 -502 l0 -390 -392 0 -393 0
0 390 0 390 393 0 392 0 0 -390z"/>
<path d="M1283 2219 c-72 -36 -73 -40 -73 -507 0 -455 0 -456 71 -494 31 -17
66 -18 447 -18 456 0 465 1 502 62 19 32 20 49 20 459 l0 426 -23 34 c-13 19
-38 39 -57 46 -25 8 -154 12 -440 12 -390 1 -407 0 -447 -20z m847 -499 l0
-390 -395 0 -395 0 0 390 0 390 395 0 395 0 0 -390z"/>
<path d="M70 1022 c-70 -34 -70 -37 -70 -500 0 -458 1 -465 64 -500 28 -15 74
-17 458 -17 416 0 427 1 455 21 63 46 63 47 63 499 0 379 -1 413 -18 445 -37
70 -38 70 -502 70 -375 0 -418 -2 -450 -18z m840 -502 l0 -390 -392 0 -393 0
0 390 0 390 393 0 392 0 0 -390z"/>
<path d="M1285 1026 c-17 -7 -40 -26 -50 -42 -19 -27 -20 -51 -23 -449 -3
-464 -3 -462 61 -509 28 -20 39 -21 460 -21 412 0 433 1 461 20 55 37 56 47
56 502 0 402 -1 419 -20 451 -37 61 -45 62 -502 62 -321 -1 -420 -4 -443 -14z
m845 -506 l0 -390 -395 0 -395 0 0 390 0 390 395 0 395 0 0 -390z"/>
</g>
</svg>
