<?xml version="1.0" standalone="no"?>
<!DOCTYPE svg PUBLIC "-//W3C//DTD SVG 20010904//EN"
 "http://www.w3.org/TR/2001/REC-SVG-20010904/DTD/svg10.dtd">
<svg version="1.0" xmlns="http://www.w3.org/2000/svg"
 width="225.000000pt" height="225.000000pt" viewBox="0 0 225.000000 225.000000"
 preserveAspectRatio="xMidYMid meet">

<g transform="translate(0.000000,225.000000) scale(0.100000,-0.100000)"
fill="#000000" stroke="none">
<path d="M10 1233 l0 -668 29 -60 c34 -72 58 -95 131 -129 l55 -26 900 0 900
0 55 26 c73 34 97 57 131 129 l29 60 0 668 0 667 -1115 0 -1115 0 0 -667z
m2140 -40 c0 -596 -1 -618 -20 -657 -11 -23 -37 -52 -57 -66 l-38 -25 -875 -3
c-481 -2 -894 0 -918 3 -50 7 -108 53 -128 102 -11 26 -14 154 -14 648 l0 615
1025 0 1025 0 0 -617z"/>
<path d="M131 1755 c8 -11 86 -103 174 -205 281 -324 305 -352 305 -364 0 -7
-46 -61 -102 -120 -57 -60 -105 -114 -107 -120 -2 -6 48 43 112 109 101 105
118 118 130 105 7 -8 40 -46 73 -85 212 -248 257 -295 311 -321 46 -23 63 -26
113 -21 103 9 128 30 379 330 43 50 80 99 83 107 4 11 49 -29 154 -135 148
-151 180 -174 48 -35 -39 41 -94 101 -124 133 l-53 57 28 30 c16 17 26 30 23
30 -4 0 11 17 33 38 21 22 36 42 33 45 -6 6 -99 -86 -181 -178 -20 -22 -90
-98 -157 -169 -140 -149 -182 -176 -282 -176 -112 0 -151 31 -424 335 -25 27
-108 117 -185 200 -119 128 -256 276 -370 400 -15 17 -21 21 -14 10z"/>
<path d="M1781 1385 c-17 -20 -31 -39 -31 -42 0 -4 3 -3 8 3 4 5 20 24 36 42
17 17 27 32 24 32 -3 0 -20 -16 -37 -35z"/>
</g>
</svg>
