<?xml version="1.0" standalone="no"?>
<!DOCTYPE svg PUBLIC "-//W3C//DTD SVG 20010904//EN"
 "http://www.w3.org/TR/2001/REC-SVG-20010904/DTD/svg10.dtd">
<svg version="1.0" xmlns="http://www.w3.org/2000/svg"
 width="232.000000pt" height="217.000000pt" viewBox="0 0 232.000000 217.000000"
 preserveAspectRatio="xMidYMid meet">

<g transform="translate(0.000000,217.000000) scale(0.100000,-0.100000)"
fill="#000000" stroke="none">
<path d="M1110 2053 c-25 -10 -862 -738 -982 -855 -54 -53 -59 -77 -23 -113
23 -24 30 -25 152 -25 70 0 138 -3 151 -6 l22 -6 0 -400 c0 -433 0 -433 56
-477 25 -20 39 -21 231 -21 191 0 207 1 234 21 57 40 59 54 59 334 0 234 1
256 18 263 21 9 308 10 316 1 4 -3 9 -125 13 -270 8 -363 -3 -349 268 -349
145 0 182 3 204 16 54 32 53 28 60 474 l6 415 153 5 c147 5 155 6 173 29 30
37 23 61 -33 114 -159 149 -921 812 -963 838 -29 18 -84 24 -115 12z m104
-117 c101 -83 881 -768 884 -777 2 -5 -44 -9 -110 -9 -195 0 -188 19 -188
-493 0 -292 -3 -396 -12 -405 -17 -17 -299 -17 -316 0 -9 9 -12 82 -12 269 0
250 -1 257 -23 290 -37 55 -53 59 -254 59 l-183 0 -40 -40 -40 -40 0 -259 c0
-143 -3 -266 -6 -275 -5 -14 -31 -16 -183 -16 -124 0 -181 4 -189 12 -9 9 -12
114 -12 412 0 385 -1 402 -20 434 -29 48 -72 62 -185 62 -60 0 -94 4 -90 10
14 22 919 800 932 800 3 0 24 -15 47 -34z"/>
</g>
</svg>
