<?xml version="1.0" standalone="no"?>
<!DOCTYPE svg PUBLIC "-//W3C//DTD SVG 20010904//EN"
 "http://www.w3.org/TR/2001/REC-SVG-20010904/DTD/svg10.dtd">
<svg version="1.0" xmlns="http://www.w3.org/2000/svg"
 width="360.000000pt" height="360.000000pt" viewBox="0 0 360.000000 360.000000"
 preserveAspectRatio="xMidYMid meet">

<g transform="translate(0.000000,360.000000) scale(0.100000,-0.100000)"
fill="#000000" stroke="none">
<path d="M1620 3126 c-94 -20 -155 -43 -238 -87 -219 -117 -377 -310 -444
-546 -19 -65 -22 -103 -22 -223 0 -133 2 -152 28 -230 75 -224 191 -410 556
-890 119 -157 231 -306 249 -332 17 -27 35 -48 39 -48 4 0 16 15 27 33 10 17
75 106 144 197 467 617 532 710 632 911 113 226 131 365 74 582 -46 178 -193
385 -346 488 -73 50 -193 107 -271 130 -95 27 -331 35 -428 15z m317 -588 c79
-27 148 -79 196 -148 51 -74 70 -142 65 -244 -2 -67 -9 -93 -35 -147 -165
-335 -657 -289 -749 71 -51 201 68 413 269 475 68 22 182 19 254 -7z"/>
<path d="M1949 922 c-47 -64 -101 -141 -120 -169 -19 -29 -37 -53 -40 -53 -4
0 -43 51 -87 113 -169 237 -152 218 -196 212 -112 -16 -269 -112 -313 -191
-78 -136 58 -286 322 -355 80 -21 112 -24 285 -24 173 0 205 3 285 24 50 13
124 40 165 61 282 143 223 372 -124 479 -37 11 -73 21 -80 21 -6 0 -50 -53
-97 -118z"/>
</g>
</svg>
