<?xml version="1.0" standalone="no"?>
<!DOCTYPE svg PUBLIC "-//W3C//DTD SVG 20010904//EN"
 "http://www.w3.org/TR/2001/REC-SVG-20010904/DTD/svg10.dtd">
<svg version="1.0" xmlns="http://www.w3.org/2000/svg"
 width="225.000000pt" height="225.000000pt" viewBox="0 0 225.000000 225.000000"
 preserveAspectRatio="xMidYMid meet">

<g transform="translate(0.000000,225.000000) scale(0.100000,-0.100000)"
fill="#000000" stroke="none">
<path d="M758 2240 c-367 -67 -626 -304 -730 -666 -32 -113 -32 -315 0 -428
48 -166 108 -278 211 -389 310 -334 826 -382 1183 -108 l65 49 349 -349 348
-349 33 32 33 32 -349 351 -350 350 44 55 c149 184 217 466 169 698 -42 205
-127 359 -271 493 -160 148 -354 227 -573 234 -63 2 -136 0 -162 -5z m238 -91
c94 -13 206 -51 299 -103 97 -54 237 -197 288 -294 135 -256 139 -493 15 -752
-45 -93 -61 -115 -147 -201 -86 -86 -108 -102 -201 -147 -259 -124 -496 -120
-752 15 -97 51 -240 191 -294 288 -82 149 -122 320 -109 465 31 332 251 605
563 700 128 39 215 46 338 29z"/>
</g>
</svg>
