<?xml version="1.0" standalone="no"?>
<!DOCTYPE svg PUBLIC "-//W3C//DTD SVG 20010904//EN"
 "http://www.w3.org/TR/2001/REC-SVG-20010904/DTD/svg10.dtd">
<svg version="1.0" xmlns="http://www.w3.org/2000/svg"
 width="135.000000pt" height="135.000000pt" viewBox="0 0 135.000000 135.000000"
 preserveAspectRatio="xMidYMid meet">

<g transform="translate(0.000000,135.000000) scale(0.100000,-0.100000)"
fill="#000000" stroke="none">
<path d="M550 1255 c-107 -24 -206 -79 -286 -159 -107 -107 -154 -201 -174
-349 -24 -173 48 -378 177 -498 129 -121 314 -182 480 -159 148 20 242 67 349
174 270 270 213 719 -117 918 -124 75 -293 104 -429 73z m255 -40 c202 -52
358 -208 410 -410 62 -243 -61 -507 -292 -622 -351 -176 -762 54 -799 447 -25
261 156 514 417 584 71 19 190 20 264 1z"/>
<path d="M796 797 c-65 -52 -96 -71 -119 -71 -23 -1 -35 -8 -46 -27 -13 -24
-13 -29 5 -55 16 -25 20 -52 24 -183 4 -111 9 -156 18 -159 9 -3 12 33 12 156
0 146 2 160 20 177 11 10 20 28 20 40 0 15 27 43 90 93 50 40 90 76 90 81 0
27 -35 11 -114 -52z"/>
</g>
</svg>
